<svg id="Layer_1" data-name="Layer 1" xmlns="http://www.w3.org/2000/svg" width="381.96" height="746.19" viewBox="0 0 381.96 746.19"><defs><style>.cls-1{fill:#b02616;}.cls-2{fill:#918f88;}.cls-3{fill:#fff;}.cls-4{fill:red;}.cls-5{fill:none;stroke:#d10000;stroke-miterlimit:10;}.cls-6{opacity:0.44;}.cls-7{fill:#ed1c24;}</style></defs><path class="cls-1" d="M194.33,421.45,162,420.26h-3c-1.09,0-1.38-2.86-1.3-6.21a7.06,7.06,0,0,1,10.18-6.17C178.57,413.17,195.21,421.45,194.33,421.45Z"/><path class="cls-1" d="M194.33,532.06,162,530.88h-3c-1.09,0-1.38-2.86-1.3-6.22a7.07,7.07,0,0,1,10.18-6.17C178.57,523.79,195.21,532.06,194.33,532.06Z"/><path class="cls-1" d="M194.33,637.43,162,636.24h-3c-1.09,0-1.38-2.86-1.3-6.21a7.06,7.06,0,0,1,10.18-6.17C178.57,629.15,195.21,637.43,194.33,637.43Z"/><path class="cls-1" d="M235.81,475.64l39.59,2h3.66c1.33,0,1.68,4.86,1.58,10.56-.15,8.77-6.78,14.37-12.44,10.49C255.08,489.71,234.73,475.64,235.81,475.64Z"/><path class="cls-1" d="M233.77,688.74l39.59,2H277c1.33,0,1.68,4.86,1.58,10.56-.16,8.76-6.78,14.37-12.44,10.49C253,702.81,232.68,688.74,233.77,688.74Z"/><path class="cls-1" d="M235.45,583.89l39.59,2h3.66c1.33,0,1.68,4.87,1.58,10.57-.16,8.76-6.78,14.36-12.44,10.49C254.72,598,234.36,583.89,235.45,583.89Z"/><path class="cls-1" d="M258.55,396.9l10.58-7.34a18.39,18.39,0,0,0,7.36-19.62l-1.83-7.2c4.29-4.59,12.87-4.84,15.19,1,9.74,24.41-14.7,48.69-14.7,48.69a11.37,11.37,0,0,1-16.06.55h0A11.36,11.36,0,0,1,258.55,396.9Z"/><polygon class="cls-2" points="169.38 739.69 169.38 130.74 219.88 6.97 270.38 130.74 270.38 739.69 169.38 739.69"/><path d="M219.88,8.29l50,122.55V739.19h-100V130.84l50-122.55m0-2.65-51,125V740.19h102V130.64l-51-125Z"/><circle class="cls-3" cx="219.88" cy="266.69" r="119" transform="translate(-124.17 233.59) rotate(-45)"/><path class="cls-4" d="M219.88,148.69a118,118,0,1,1-83.43,34.56,117.2,117.2,0,0,1,83.43-34.56m0-2a120,120,0,1,0,120,120,120,120,0,0,0-120-120Z"/><circle cx="220.96" cy="259.49" r="21.24"/><polyline class="cls-5" points="107.21 227.81 118.6 243.34 147.7 225.53 153.06 248.32"/><polyline class="cls-5" points="272.55 294.98 289.79 295.68 295.15 308.7 312.28 311.38"/><polyline class="cls-5" points="281.41 314.37 292.8 329.89 312.27 311.38 317.64 334.16"/><polyline class="cls-5" points="210.77 147.83 225.45 169.94 204.96 159.29 210.32 182.08"/><polyline class="cls-5" points="188.81 330.53 179.87 347.77 158.68 343.79 157.66 364.95"/><polyline class="cls-5" points="249.83 337.3 248.43 361.55 265.66 350.83 269.36 372.92"/><polyline class="cls-5" points="253.45 192.33 263.06 173.87 277.7 187.99 284.77 166.38"/><polyline class="cls-5" points="102.58 291.5 123.74 304.94 143.78 270.21 157.7 281.96"/><polyline class="cls-5" points="292.98 229.1 294.78 222.29 314.09 233.27 327.71 217.79"/><polyline class="cls-5" points="312.83 287.57 301.66 295.04 316.34 303.6 312.28 311.38"/><polyline class="cls-5" points="149.16 170.67 154.15 204.03 174.05 183.18 188.61 209.01"/><polyline class="cls-5" points="123.03 304.32 134.42 319.85 163.52 302.04 168.88 324.83"/><polyline class="cls-5" points="277.48 215.73 291.74 211 294.98 222.34 308.48 214.65"/><g class="cls-6"><path d="M257.62,410.55c-7,9-26.51,21.85-46.13,11.32-16.61-8.92-42-24.6-42.47-40.26-.09-3.51.06-6.57,1-6a53.88,53.88,0,0,0,11.6,4.9c12.58,3.47,12.79,4.3,31.52,5.72,10,.76,29.63-1.13,42.77-5.64,5-1.72,11.49-4.34,13.85-5.32,1.17-.49.83,3.16.82,6.3C270.6,393.61,271.4,392.59,257.62,410.55Z"/></g><path class="cls-1" d="M270.71,495.8l-99-51.79-9.21-4.66a16.52,16.52,0,0,1-7.24-22.14l2.63-5.19a5.81,5.81,0,0,1,11,2.46h0a6.59,6.59,0,0,0,3.68,5.75s101,50.54,102.52,51.55c5.21,3.59,6.08,8.78,4.57,14.31C278.28,491.08,274.72,497.83,270.71,495.8Z"/><path class="cls-1" d="M270.71,711l-99-51.79-9.21-4.65a16.54,16.54,0,0,1-7.24-22.15l2.63-5.19a5.81,5.81,0,0,1,11,2.46h0a6.62,6.62,0,0,0,3.68,5.76S273.59,686,275.06,687c5.21,3.59,6.08,8.78,4.57,14.31C278.28,706.26,274.72,713,270.71,711Z"/><path class="cls-1" d="M270.71,605.28l-99-51.78-9.21-4.66a16.54,16.54,0,0,1-7.24-22.15l2.63-5.19a5.81,5.81,0,0,1,11,2.46h0a6.61,6.61,0,0,0,3.68,5.76s101,50.53,102.52,51.54c5.21,3.6,6.08,8.78,4.57,14.31C278.28,600.56,274.72,607.31,270.71,605.28Z"/><path class="cls-7" d="M17.56,94.05,14,121.31H8.75l12.48-95h6.49l13,95H35.17L31.44,94.05ZM30.15,82.12c-3.2-24-5-37.22-5.79-44.7h-.05c-.87,8.31-2.88,24.15-5.46,44.7Z"/><path class="cls-7" d="M45.49,69.23c0-6,0-12.2-.05-17.55H50.3c.12,2,.19,8.84.19,10.94C51.49,57,53.6,50,58.52,50s8.64,8.27,8.64,26.58v44.69h-5v-43c0-10-1.42-16.81-5.23-16.81-4.53,0-6.45,8.94-6.45,22.6v37.24h-5Z"/><path class="cls-7" d="M96.5,21v80.73c0,6.5,0,12.92,0,19.57h-4.8c-.12-1.89-.22-6.89-.24-9.38-1.27,6.92-3.82,11-8,11-6.63,0-10.74-14.44-10.74-35.76S77.18,50,84.38,50c4.42,0,6.46,4.7,7.13,8.46V21ZM77.94,86.79c0,16.19,2.78,24.94,6.74,24.94,5.84,0,7-11.82,7-26.07,0-14.78-1.09-24.41-6.7-24.41C80.58,61.25,77.94,70.63,77.94,86.79Z"/><path class="cls-7" d="M107.15,89.06c0,13.1,2.48,22.86,6.72,22.86,3.88,0,5.11-5.2,5.92-10.12h5c-1,8.84-3.79,21.15-11.09,21.15-8.22,0-11.62-17.67-11.62-35.66C102.1,66.37,106,50,114,50c8.46,0,11.26,17.88,11.26,33.22,0,2.17,0,3.89-.08,5.8Zm13.06-9.13c0-10.8-2-19.55-6.26-19.55s-6.23,8.11-6.65,19.55Z"/><path class="cls-7" d="M130.85,70.59c0-9.19,0-14.79,0-18.91h4.9c.08,1.88.15,7.62.15,13.83,1.31-9.14,4.34-15.17,8.65-15.47V63.27c-5.3.27-8.65,7-8.65,24.9v33.14h-5Z"/><path class="cls-7" d="M152.05,101.19c.7,7.21,2.72,11.43,6.07,11.43,3.58,0,5-4.06,5-10,0-6.12-1.17-8.89-5.88-12-7.6-5-9.12-11.25-9.12-20.77,0-9.93,2.7-19.87,9.58-19.87s9.63,10.62,9.94,20.27H162.8c-.34-4.13-1.49-10.12-5.35-10.12-3.39,0-4.4,4.32-4.4,8.61,0,4.86,1,7.26,5.65,10.24,8,5.08,9.52,12.3,9.52,22.62,0,12.08-3.54,21.29-10.27,21.29-6.93,0-10.21-9.33-10.86-21.76Z"/><path class="cls-7" d="M17.57,244.31v41.11H12.39v-95H26.53c7.35,0,11.27,10.75,11.27,25.54,0,12.42-2.63,19.8-5.86,22.37,2.67,2,5.21,7.63,5.21,24.22v4.19c0,6.51-.09,14.61.48,18.67H32.56c-.64-4.1-.62-11.45-.62-20.59v-1.9c0-12.93-1.34-18.62-7.56-18.62Zm0-11.69H25c5.17,0,7.4-5.23,7.4-15.39,0-9.65-2.34-15.11-6.94-15.11H17.57Z"/><path class="cls-7" d="M44.3,185.13h5v15.44h-5Zm0,30.67h5v69.62h-5Z"/><path class="cls-7" d="M56.72,185.13h5v15.44h-5Zm0,30.67h5v69.62h-5Z"/><path class="cls-7" d="M71.65,265.31c.7,7.21,2.72,11.42,6.07,11.42,3.58,0,5-4.05,5-10,0-6.12-1.18-8.89-5.89-12-7.6-5-9.11-11.25-9.11-20.77,0-9.94,2.69-19.87,9.57-19.87s9.63,10.61,10,20.26H82.41c-.34-4.13-1.49-10.12-5.35-10.12-3.39,0-4.41,4.33-4.41,8.62,0,4.86,1,7.26,5.66,10.23,8,5.09,9.51,12.31,9.51,22.63,0,12.07-3.53,21.28-10.26,21.28-6.94,0-10.22-9.32-10.86-21.75Z"/><path class="cls-7" d="M21,449.54l-12.79-95h5.63l6,46.7c1.78,13.81,3.49,27.33,4.27,36.21h.1c.74-8,2.63-22.07,4.45-35.79L35,354.55h5.4l-13.21,95Z"/><path class="cls-7" d="M44.1,349.24h5v15.44h-5Zm0,30.67h5v69.63h-5Z"/><path class="cls-7" d="M77.69,429.26c0,6.77,0,15.75.06,20.28H72.87c-.1-1.84-.15-6-.17-10-1.32,7.57-3.78,11.61-7.71,11.61-4.54,0-8.58-6.38-8.58-25.56V379.91h5V422.8c0,8.86,1,16.89,5.1,16.89,4.48,0,6.22-6.62,6.22-23.32V379.91h5Z"/><path class="cls-7" d="M91.13,390.63v58.91h-5V390.63H82V379.91h4.1v-7.82c0-13.25,1.7-24.22,7.66-24.22a3.48,3.48,0,0,1,2.61,1v11a3.4,3.4,0,0,0-2-.71c-2.39,0-3.23,4.19-3.23,12.72v8.1h9.14v-7.82c0-13.25,1.79-24.22,7.66-24.22a3.51,3.51,0,0,1,2.62,1v11a3.42,3.42,0,0,0-2-.71c-2.39,0-3.23,4.19-3.23,12.72v8.1h5v10.72h-5v58.91h-5V390.63Z"/></svg>